<svg width="720" height="200" viewBox="0 0 720 200" fill="none" xmlns="http://www.w3.org/2000/svg">
<g clip-path="url(#clip0)">
<rect width="720" height="200" fill="#F3DB5C"/>
<rect width="720" height="200" fill="#0286FF"/>
<circle cx="360" cy="-400" r="600" fill="#F3DB5C"/>
<path opacity="0.1" d="M476 89.4021V170H397.166L376.474 149.308L373.8 146.634V143.61C373.8 143.302 374.052 143.05 374.36 143.05H377.902C376.992 142.21 376.348 141.104 376.124 139.844C374.85 139.816 373.8 138.752 373.8 137.464V132.858C372.666 132.761 371.784 131.808 371.784 130.647V52.9182C371.784 51.7 372.778 50.6921 374.01 50.6921H437.29L440.216 53.6182L476 89.4021Z" fill="#040000"/>
<path d="M435.988 138.752C435.988 139.13 435.946 139.494 435.876 139.844C435.666 141.034 435.078 142.098 434.252 142.91C434.21 142.952 434.154 143.008 434.098 143.05C433.048 144.03 431.648 144.646 430.094 144.646H381.906C380.352 144.646 378.952 144.03 377.902 143.05C376.992 142.21 376.348 141.104 376.124 139.844C376.054 139.494 376.012 139.13 376.012 138.752C376.012 137.688 376.305 136.68 376.809 135.812C377.062 135.364 377.383 134.958 377.747 134.594C378.811 133.53 380.281 132.872 381.905 132.872H430.093C433.342 132.872 435.988 135.518 435.988 138.752Z" fill="#9F9E9F"/>
<path d="M438.2 143.61V148.748C438.2 149.056 437.948 149.308 437.64 149.308H374.36C374.052 149.308 373.8 149.056 373.8 148.748V143.61C373.8 143.302 374.052 143.05 374.36 143.05H437.64C437.948 143.05 438.2 143.302 438.2 143.61Z" fill="#C4C4C4"/>
<path d="M438.2 130.478V137.464C438.2 138.752 437.15 139.816 435.876 139.844C435.848 139.858 435.82 139.858 435.792 139.858H376.208C376.18 139.858 376.152 139.858 376.124 139.844C374.85 139.816 373.8 138.752 373.8 137.464V130.478C373.8 129.162 374.892 128.084 376.208 128.084H435.792C437.108 128.084 438.2 129.162 438.2 130.478Z" fill="#C4C4C4"/>
<path d="M399.165 130.108H376.537V135.811H399.165V130.108Z" fill="#9B9B9B"/>
<path d="M440.216 52.9182V130.646C440.216 131.808 439.334 132.76 438.2 132.858C438.13 132.872 438.06 132.872 437.99 132.872H374.01C373.94 132.872 373.87 132.872 373.8 132.858C372.666 132.76 371.784 131.808 371.784 130.646V52.9182C371.784 51.7 372.778 50.6921 374.01 50.6921H437.99C439.222 50.6921 440.216 51.7 440.216 52.9182Z" fill="#3B4045"/>
<path d="M406.865 60.4328H373.807V65.1239H406.865V60.4328Z" fill="#33363B"/>
<path d="M438.193 60.4328H406.865V65.1239H438.193V60.4328Z" fill="#2A5582"/>
<path opacity="0.1" d="M406.865 64.3418H373.807V67.4694H406.865H438.193V64.3418H406.865Z" fill="#FDFEFE"/>
<path d="M406.865 74.0459H373.807V78.737H406.865V74.0459Z" fill="#33363B"/>
<path d="M438.193 74.0459H406.865V78.737H438.193V74.0459Z" fill="#2A5582"/>
<path opacity="0.1" d="M406.865 77.9552H373.807V81.0825H406.865H438.193V77.9552H406.865Z" fill="#FDFEFE"/>
<path d="M406.865 87.6592H373.807V92.3503H406.865V87.6592Z" fill="#33363B"/>
<path d="M438.193 87.6592H406.865V92.3503H438.193V87.6592Z" fill="#2A5582"/>
<path opacity="0.1" d="M406.865 91.5683H373.807V94.6959H406.865H438.193V91.5683H406.865Z" fill="#FDFEFE"/>
<g opacity="0.8">
<path opacity="0.8" d="M405.999 118.412C403.003 118.412 400.04 118.199 396.942 117.759L396.46 117.691L396.334 117.22C395.091 112.55 395.091 108.911 396.334 104.24L396.46 103.77L396.942 103.701C400.04 103.262 403.003 103.048 405.999 103.048C408.996 103.048 411.959 103.262 415.058 103.701L415.54 103.77L415.666 104.24C416.91 108.911 416.91 112.55 415.666 117.22L415.54 117.691L415.058 117.759C411.959 118.199 408.996 118.412 405.999 118.412Z" fill="#DCDBDB"/>
<path opacity="0.8" d="M414.955 117.031C408.884 117.892 403.116 117.892 397.045 117.031C395.842 112.512 395.842 108.948 397.045 104.43C403.117 103.569 408.884 103.569 414.955 104.43C416.158 108.949 416.158 112.512 414.955 117.031Z" fill="#3B4045"/>
<path opacity="0.8" d="M405.999 114.654C404.033 114.654 402.433 113.054 402.433 111.088C402.433 109.81 403.123 108.622 404.234 107.987C404.528 107.82 404.902 107.922 405.071 108.216C405.238 108.51 405.136 108.884 404.842 109.052C404.112 109.468 403.659 110.248 403.659 111.087C403.659 112.378 404.709 113.428 406 113.428C407.291 113.428 408.341 112.378 408.341 111.087C408.341 110.248 407.888 109.467 407.157 109.05C406.863 108.883 406.761 108.509 406.929 108.215C407.097 107.921 407.471 107.818 407.765 107.986C408.876 108.621 409.567 109.809 409.567 111.087C409.567 113.054 407.967 114.654 405.999 114.654Z" fill="#DCDBDB"/>
</g>
<path d="M406 111.399C405.688 111.399 405.434 111.145 405.434 110.833V107.372C405.434 107.06 405.688 106.807 406 106.807C406.312 106.807 406.566 107.06 406.566 107.372V110.833C406.566 111.145 406.312 111.399 406 111.399Z" fill="#DCDBDB"/>
<path d="M417.254 129.066C418.677 129.066 419.83 127.913 419.83 126.491C419.83 125.068 418.677 123.915 417.254 123.915C415.832 123.915 414.679 125.068 414.679 126.491C414.679 127.913 415.832 129.066 417.254 129.066Z" fill="#2A5582"/>
<path d="M425.105 129.066C426.527 129.066 427.681 127.913 427.681 126.491C427.681 125.068 426.527 123.915 425.105 123.915C423.683 123.915 422.53 125.068 422.53 126.491C422.53 127.913 423.683 129.066 425.105 129.066Z" fill="#2A5582"/>
<path d="M432.956 129.066C434.378 129.066 435.531 127.913 435.531 126.491C435.531 125.068 434.378 123.915 432.956 123.915C431.533 123.915 430.38 125.068 430.38 126.491C430.38 127.913 431.533 129.066 432.956 129.066Z" fill="#2A5582"/>
<path opacity="0.1" d="M384 86.7V170H313.16L270.152 126.992L266.148 122.988V97.5921L270.418 93.3218L271.93 91.81L276.704 87.0361L287.484 76.2561L292.482 71.2582L293.546 70.1939L297.634 66.1061L303.122 60.6179H357.918L384 86.7Z" fill="#040000"/>
<path d="M329.63 136.55H298.37L299.472 113.089H328.528L329.63 136.55Z" fill="#C3C2C6"/>
<path d="M329.226 128.891H298.774L299.471 114.066H328.529L329.226 128.891Z" fill="#B3B2B6"/>
<path d="M293.186 134.594H334.814C337.442 134.594 339.593 136.745 339.593 139.373H288.407C288.407 136.745 290.558 134.594 293.186 134.594Z" fill="#C9C8CD"/>
<path d="M361.852 95.45V124.864C361.852 126.04 360.9 126.992 359.738 126.992H268.262C267.1 126.992 266.148 126.04 266.148 124.864V95.45C266.148 94.2739 267.1 93.3218 268.262 93.3218H359.738C360.9 93.3218 361.852 94.2739 361.852 95.45Z" fill="#C9C8CD"/>
<path d="M361.852 63.39V116.996H266.148V63.39H266.218C266.54 61.8082 267.954 60.6182 269.62 60.6182H358.38C360.046 60.6182 361.46 61.8082 361.782 63.39H361.852Z" fill="#2D2D33"/>
<path d="M356.073 66.1077H271.927V111.507H356.073V66.1077Z" fill="#F4F4F5"/>
<path d="M299.517 76.2626H276.709V87.403H299.517V76.2626Z" fill="#B3B2B6"/>
<path d="M325.747 76.2626H302.938V87.403H325.747V76.2626Z" fill="#B3B2B6"/>
<path d="M351.976 76.2626H329.168V87.403H351.976V76.2626Z" fill="#B3B2B6"/>
<path d="M289.742 89.1951H276.709V91.3132H289.742V89.1951Z" fill="#B3B2B6"/>
<path d="M295.331 70.1961H282.298V71.2552H295.331V70.1961Z" fill="#B3B2B6"/>
<path d="M289.742 104.455H276.709V106.573H289.742V104.455Z" fill="#B3B2B6"/>
<path d="M299.68 92.6164H276.709V94.7344H299.68V92.6164Z" fill="#B3B2B6"/>
<path d="M299.68 96.5536H276.709V98.6716H299.68V96.5536Z" fill="#B3B2B6"/>
<path d="M299.68 100.491H276.709V102.609H299.68V100.491Z" fill="#B3B2B6"/>
<path d="M316.379 89.1951H303.346V91.3132H316.379V89.1951Z" fill="#B3B2B6"/>
<path d="M316.379 104.455H303.346V106.573H316.379V104.455Z" fill="#B3B2B6"/>
<path d="M326.317 92.6164H303.346V94.7344H326.317V92.6164Z" fill="#B3B2B6"/>
<path d="M326.317 96.5536H303.346V98.6716H326.317V96.5536Z" fill="#B3B2B6"/>
<path d="M326.317 100.491H303.346V102.609H326.317V100.491Z" fill="#B3B2B6"/>
<path d="M342.183 89.1951H329.15V91.3132H342.183V89.1951Z" fill="#B3B2B6"/>
<path d="M342.183 104.455H329.15V106.573H342.183V104.455Z" fill="#B3B2B6"/>
<path d="M352.121 92.6164H329.15V94.7344H352.121V92.6164Z" fill="#B3B2B6"/>
<path d="M352.121 96.5536H329.15V98.6716H352.121V96.5536Z" fill="#B3B2B6"/>
<path d="M352.121 100.491H329.15V102.609H352.121V100.491Z" fill="#B3B2B6"/>
<path d="M279.757 69.6063C280.375 70.2243 280.375 71.2265 279.757 71.8444C279.139 72.4624 278.137 72.4624 277.519 71.8444C276.901 71.2265 276.901 70.2243 277.519 69.6063C278.137 68.9884 279.139 68.9884 279.757 69.6063Z" fill="#B3B2B6"/>
<path d="M345.666 70.7263L346.723 71.7834L347.78 70.7263L346.723 69.6693L345.666 70.7263Z" fill="#B3B2B6"/>
<path d="M349.292 70.7257L350.349 71.7827L351.406 70.7257L350.349 69.6687L349.292 70.7257Z" fill="#B3B2B6"/>
<path d="M342.448 70.7263L343.505 71.7833L344.562 70.7263L343.505 69.6692L342.448 70.7263Z" fill="#B3B2B6"/>
<path d="M15.65 46H11.5V11H15.65V27.1H31.9V11H36.05V46H31.9V27.6H15.65V46ZM40.1527 46H39.5527L54.5027 11L55.0527 10.75L67.6527 46H63.4027L59.5027 35H44.9027L40.1527 46ZM52.9527 16.4L45.1027 34.5H59.3527L52.9527 16.4ZM88.1297 46.2C81.8964 46.2 77.2797 44.4333 74.2797 40.9C73.213 39.6333 72.3464 37.95 71.6797 35.85C71.013 33.75 70.6797 31.2 70.6797 28.2C70.6797 25.2 71.163 22.5167 72.1297 20.15C73.1297 17.75 74.4797 15.9 76.1797 14.6C79.4797 12.1667 83.463 10.95 88.1297 10.95C89.6297 10.95 91.0964 11.0667 92.5297 11.3C93.963 11.5 95.0297 11.7167 95.7297 11.95L96.7797 12.3L96.6297 12.8C94.0297 11.9 91.1964 11.45 88.1297 11.45C84.5964 11.45 81.6464 12.6 79.2797 14.9C77.4797 16.6 76.213 19.1 75.4797 22.4C75.0464 24.2667 74.8297 26.55 74.8297 29.25C74.8297 31.95 75.213 34.45 75.9797 36.75C76.7464 39.0167 77.613 40.7 78.5797 41.8C79.5797 42.9 80.7797 43.7833 82.1797 44.45C83.5797 45.0833 84.6964 45.45 85.5297 45.55C86.363 45.65 87.3464 45.7 88.4797 45.7C89.6464 45.7 91.1964 45.5667 93.1297 45.3V35H87.0797V34.5H99.4297V35H97.2797V44.85C94.7464 45.75 91.6964 46.2 88.1297 46.2ZM102.75 46H102.15L117.1 11L117.65 10.75L130.25 46H126L122.1 35H107.5L102.75 46ZM115.55 16.4L107.7 34.5H121.95L115.55 16.4ZM153.766 46H134.766V11H138.916V45.5H153.766V46ZM155.299 29.35C155.299 23.2833 156.765 18.6833 159.699 15.55C162.665 12.3833 166.465 10.8 171.099 10.8C175.732 10.8 179.415 12.1667 182.149 14.9C184.915 17.6333 186.299 22 186.299 28C186.299 34 184.832 38.5333 181.899 41.6C178.965 44.6667 175.049 46.2 170.149 46.2C165.915 46.2 162.449 44.9833 159.749 42.55C158.349 41.2833 157.249 39.5333 156.449 37.3C155.682 35.0333 155.299 32.3833 155.299 29.35ZM170.949 11.3C167.582 11.3 164.815 12.8 162.649 15.8C160.515 18.8 159.449 23.2 159.449 29C159.449 34.8 160.465 39.0333 162.499 41.7C164.532 44.3667 167.232 45.7 170.599 45.7C173.999 45.7 176.765 44.2 178.899 41.2C181.065 38.1667 182.149 33.7833 182.149 28.05C182.149 22.2833 181.115 18.05 179.049 15.35C177.015 12.65 174.315 11.3 170.949 11.3ZM208.247 46.2C202.014 46.2 197.397 44.4333 194.397 40.9C193.33 39.6333 192.464 37.95 191.797 35.85C191.13 33.75 190.797 31.2 190.797 28.2C190.797 25.2 191.28 22.5167 192.247 20.15C193.247 17.75 194.597 15.9 196.297 14.6C199.597 12.1667 203.58 10.95 208.247 10.95C209.747 10.95 211.214 11.0667 212.647 11.3C214.08 11.5 215.147 11.7167 215.847 11.95L216.897 12.3L216.747 12.8C214.147 11.9 211.314 11.45 208.247 11.45C204.714 11.45 201.764 12.6 199.397 14.9C197.597 16.6 196.33 19.1 195.597 22.4C195.164 24.2667 194.947 26.55 194.947 29.25C194.947 31.95 195.33 34.45 196.097 36.75C196.864 39.0167 197.73 40.7 198.697 41.8C199.697 42.9 200.897 43.7833 202.297 44.45C203.697 45.0833 204.814 45.45 205.647 45.55C206.48 45.65 207.464 45.7 208.597 45.7C209.764 45.7 211.314 45.5667 213.247 45.3V35H207.197V34.5H219.547V35H217.397V44.85C214.864 45.75 211.814 46.2 208.247 46.2Z" fill="black"/>
<path d="M631.88 171.522H633.42V179.728C633.669 179.053 634.131 178.415 634.806 177.814C635.481 177.213 636.243 176.912 637.094 176.912C640.071 176.912 641.56 178.657 641.56 182.148C641.56 186.108 639.639 188.088 635.796 188.088C634.667 188.088 633.361 187.905 631.88 187.538V171.522ZM637.072 177.088C636.163 177.088 635.341 177.484 634.608 178.276C633.875 179.053 633.479 179.757 633.42 180.388V187.406C634.315 187.743 635.099 187.912 635.774 187.912C638.605 187.912 640.02 185.983 640.02 182.126C640.02 178.767 639.037 177.088 637.072 177.088ZM645.35 191.938C644.88 192.979 644.301 193.5 643.612 193.5C643.304 193.5 642.944 193.449 642.534 193.346V193.17C642.871 193.258 643.172 193.302 643.436 193.302C644.184 193.302 644.756 192.847 645.152 191.938L647 188H646.978L642.886 177H644.426L647.836 186.174L651.202 179.2C651.378 178.892 651.466 178.525 651.466 178.1C651.466 177.675 651.348 177.352 651.114 177.132L651.246 177C651.304 177.029 651.378 177.117 651.466 177.264C651.568 177.411 651.627 177.543 651.642 177.66C651.671 177.777 651.686 177.887 651.686 177.99C651.686 178.386 651.598 178.789 651.422 179.2L647.198 188L645.35 191.938ZM659.877 182.432C659.877 180.352 660.381 178.744 661.389 177.608C662.397 176.472 663.909 175.904 665.925 175.904C667.413 175.904 668.925 176.168 670.461 176.696V188.288C670.445 192.096 668.781 194 665.469 194C663.645 194 662.085 193.408 660.789 192.224L660.957 192.08C662.333 193.232 663.837 193.808 665.469 193.808C667.677 193.808 668.781 191.968 668.781 188.288V185.912C668.477 186.472 667.973 186.968 667.269 187.4C666.565 187.832 665.733 188.048 664.773 188.048C661.509 187.968 659.877 186.096 659.877 182.432ZM664.797 187.856C665.869 187.856 666.789 187.568 667.557 186.992C668.325 186.416 668.733 185.848 668.781 185.288V176.816C667.629 176.336 666.653 176.096 665.853 176.096C664.429 176.096 663.357 176.656 662.637 177.776C661.917 178.88 661.557 180.432 661.557 182.432C661.557 186.048 662.637 187.856 664.797 187.856ZM682.167 188C681.079 188 680.335 187.792 679.935 187.376C679.567 187.024 679.383 186.72 679.383 186.464V185.96C678.599 187.384 677.343 188.096 675.615 188.096C673.599 188.096 672.455 187.184 672.183 185.36C672.151 185.168 672.135 184.976 672.135 184.784C672.135 184.576 672.167 184.352 672.231 184.112C672.295 183.872 672.479 183.608 672.783 183.32C673.391 182.744 674.727 182.392 676.791 182.264C677.303 182.216 677.775 182.192 678.207 182.192C678.639 182.192 679.031 182.208 679.383 182.24V178.256C679.351 178.24 679.351 178.168 679.383 178.04C679.415 177.896 679.383 177.72 679.287 177.512C679.207 177.288 679.095 177.072 678.951 176.864C678.807 176.656 678.551 176.48 678.183 176.336C677.815 176.176 677.335 176.096 676.743 176.096C676.151 176.096 675.455 176.208 674.655 176.432C673.871 176.64 673.295 176.848 672.927 177.056L672.831 176.888C674.255 176.232 675.703 175.904 677.175 175.904C678.823 175.904 679.911 176.2 680.439 176.792C680.855 177.256 681.063 177.744 681.063 178.256V186.296C681.063 186.76 681.151 187.12 681.327 187.376C681.519 187.616 681.711 187.744 681.903 187.76L682.167 187.808H682.911V188H682.167ZM675.999 187.904C676.847 187.904 677.607 187.616 678.279 187.04C678.967 186.448 679.335 185.88 679.383 185.336V182.432C678.951 182.4 678.511 182.384 678.063 182.384C677.631 182.384 677.199 182.408 676.767 182.456C675.551 182.6 674.759 182.872 674.391 183.272C674.023 183.672 673.839 184.224 673.839 184.928C673.839 185.056 673.847 185.2 673.863 185.36C674.007 187.056 674.719 187.904 675.999 187.904ZM688.815 177.032V176.528C688.095 176.816 687.439 177.4 686.847 178.28C686.255 179.144 685.943 179.96 685.911 180.728V188H684.231V176H685.911V179.816C686.167 178.888 686.655 178.016 687.375 177.2C688.095 176.368 688.911 175.936 689.823 175.904H689.919C690.239 175.904 690.503 176.016 690.711 176.24C690.935 176.448 691.047 176.712 691.047 177.032C691.047 177.352 690.935 177.616 690.711 177.824C690.503 178.032 690.239 178.136 689.919 178.136C689.599 178.136 689.335 178.032 689.127 177.824C688.919 177.616 688.815 177.352 688.815 177.032ZM695.304 188C694.648 188 694.144 187.856 693.792 187.568C693.456 187.28 693.28 186.992 693.264 186.704L693.24 186.296V176H694.92V186.296C694.92 186.76 695.008 187.12 695.184 187.376C695.376 187.616 695.56 187.744 695.736 187.76L696.024 187.808H696.768V188H695.304ZM693.384 173.312C693.192 173.12 693.096 172.88 693.096 172.592C693.096 172.304 693.192 172.064 693.384 171.872C693.576 171.664 693.816 171.56 694.104 171.56C694.392 171.56 694.632 171.664 694.824 171.872C695.032 172.064 695.136 172.304 695.136 172.592C695.136 172.88 695.032 173.12 694.824 173.312C694.632 173.504 694.392 173.6 694.104 173.6C693.816 173.6 693.576 173.504 693.384 173.312ZM707.841 176.456C707.841 178.184 706.873 179.56 704.937 180.584C705.993 180.808 706.785 181.152 707.313 181.616C707.841 182.08 708.113 182.776 708.129 183.704C708.129 184.216 707.993 184.76 707.721 185.336C707.465 185.896 707.153 186.36 706.785 186.728C706.433 187.096 705.889 187.416 705.153 187.688C704.433 187.96 703.601 188.096 702.657 188.096C701.729 188.096 700.945 187.976 700.305 187.736C699.681 187.496 699.217 187.224 698.913 186.92C698.609 186.6 698.377 186.216 698.217 185.768C698.073 185.304 697.993 184.968 697.977 184.76C697.977 184.536 697.977 184.352 697.977 184.208C697.977 184.048 697.977 183.88 697.977 183.704C698.089 182.12 699.337 180.792 701.721 179.72C700.009 179.24 699.153 178.288 699.153 176.864C699.153 175.824 699.593 175.024 700.473 174.464C701.369 173.888 702.401 173.6 703.569 173.6C704.753 173.6 705.761 173.84 706.593 174.32C707.425 174.784 707.841 175.496 707.841 176.456ZM701.913 179.816C700.553 180.952 699.873 182.368 699.873 184.064C699.873 184.736 699.953 185.336 700.113 185.864C700.273 186.392 700.457 186.792 700.665 187.064C700.889 187.32 701.169 187.52 701.505 187.664C701.841 187.808 702.065 187.888 702.177 187.904C702.305 187.904 702.529 187.904 702.849 187.904C703.185 187.904 703.545 187.832 703.929 187.688C704.329 187.528 704.649 187.328 704.889 187.088C705.145 186.832 705.361 186.56 705.537 186.272C705.729 185.968 705.865 185.664 705.945 185.36C706.137 184.608 706.233 183.984 706.233 183.488C706.233 182.976 706.161 182.528 706.017 182.144C705.873 181.744 705.617 181.416 705.249 181.16C704.897 180.904 704.569 180.712 704.265 180.584C703.961 180.456 703.545 180.32 703.017 180.176C702.489 180.016 702.121 179.896 701.913 179.816ZM704.745 180.512C705.545 179.424 705.945 178.056 705.945 176.408C705.945 175.736 705.769 175.136 705.417 174.608C705.065 174.064 704.401 173.792 703.425 173.792C702.705 173.792 702.145 174.072 701.745 174.632C701.297 175.272 701.073 176.088 701.073 177.08C701.073 178.2 701.321 178.944 701.817 179.312C702.105 179.536 702.385 179.704 702.657 179.816C702.945 179.912 703.297 180.024 703.713 180.152C704.145 180.264 704.489 180.384 704.745 180.512Z" fill="black"/>
</g>
<defs>
<clipPath id="clip0">
<rect width="720" height="200" fill="white"/>
</clipPath>
</defs>
</svg>
